<?xml version="1.0" standalone="no"?>
<!DOCTYPE svg PUBLIC "-//W3C//DTD SVG 20010904//EN"
 "http://www.w3.org/TR/2001/REC-SVG-20010904/DTD/svg10.dtd">
<svg version="1.0" xmlns="http://www.w3.org/2000/svg"
 width="288.000000pt" height="288.000000pt" viewBox="0 0 288.000000 288.000000"
 preserveAspectRatio="xMidYMid meet">
<metadata>
Created by potrace 1.11, written by Peter Selinger 2001-2013
</metadata>
<g transform="translate(0.000000,288.000000) scale(0.100000,-0.100000)"
fill="#000000" stroke="none">
<path d="M717 2694 c-1 -1 -20 -4 -43 -7 -49 -7 -136 -45 -182 -80 -201 -153
-208 -576 -16 -982 64 -136 194 -339 269 -421 5 -6 33 -38 62 -71 83 -95 143
-157 143 -147 1 5 8 -4 16 -19 8 -15 19 -25 24 -22 6 4 10 2 10 -2 0 -10 35
-48 76 -83 108 -92 144 -121 144 -114 0 4 8 -2 18 -13 23 -26 143 -106 159
-106 7 0 13 -4 13 -8 0 -6 34 -25 140 -80 47 -24 150 -68 185 -79 22 -7 45
-16 50 -20 6 -4 26 -11 45 -16 19 -4 37 -8 40 -9 3 -1 37 -11 75 -22 60 -18
92 -27 150 -39 46 -9 146 -27 170 -29 17 -2 43 -6 60 -9 38 -7 243 -19 325
-18 158 1 230 7 178 16 -16 3 -166 49 -268 83 -41 14 -82 26 -90 28 -8 2 -51
18 -95 35 -44 17 -84 32 -90 34 -5 1 -27 10 -49 19 -21 9 -40 17 -42 17 -29 0
-485 233 -492 252 -2 4 -8 8 -13 8 -26 0 -257 172 -349 260 -25 23 -54 50 -66
59 -11 9 -21 20 -21 24 -1 5 -20 29 -42 53 -23 25 -41 49 -41 54 0 4 -4 10 -8
12 -15 6 -72 96 -116 185 -44 88 -83 200 -92 260 -2 18 -7 50 -12 70 -19 98
12 352 50 400 15 19 265 8 300 -13 4 -3 16 -7 25 -9 10 -2 32 -9 48 -16 17 -7
33 -12 38 -11 4 1 7 -3 7 -8 0 -5 3 -9 8 -9 24 4 42 -2 36 -13 -5 -7 -2 -9 9
-5 8 3 21 -1 27 -8 7 -8 15 -14 18 -14 15 2 52 -14 52 -22 0 -5 3 -8 8 -7 9 3
75 -32 83 -44 3 -5 9 -9 13 -9 8 2 59 -31 68 -44 4 -5 8 -6 8 -1 0 5 11 -1 25
-14 14 -13 25 -19 25 -14 0 5 7 0 15 -10 8 -11 15 -16 15 -11 0 4 9 -2 20 -15
11 -13 20 -19 20 -14 0 5 7 0 16 -11 8 -11 16 -19 17 -17 6 9 37 -12 37 -25 0
-8 4 -12 9 -9 4 3 18 -2 29 -12 54 -46 63 -52 72 -52 5 0 17 -11 26 -25 9 -14
19 -23 22 -20 3 2 16 -7 29 -21 12 -14 23 -22 23 -18 0 4 11 -5 25 -20 25 -27
42 -35 28 -13 -4 6 -8 15 -8 20 0 4 -4 7 -9 6 -10 -1 -30 30 -31 46 0 6 -4 10
-10 10 -18 0 -36 16 -29 26 3 5 0 8 -8 7 -7 -2 -12 3 -10 10 1 6 -4 12 -11 12
-7 0 -24 13 -37 30 -14 16 -30 29 -36 30 -6 0 -35 23 -64 52 -30 29 -50 46
-45 38 4 -7 -8 0 -28 16 -20 16 -37 33 -37 37 0 5 -4 6 -9 2 -5 -3 -16 3 -23
12 -7 10 -19 19 -27 21 -7 1 -19 9 -27 17 -8 7 -23 17 -34 20 -11 3 -20 10
-20 14 0 4 -18 16 -40 26 -22 10 -40 21 -40 25 0 4 -13 13 -30 20 -16 7 -30
17 -30 22 0 5 -5 6 -10 3 -5 -3 -10 -1 -10 4 0 6 -6 11 -14 11 -7 0 -19 7 -26
15 -7 8 -16 12 -21 9 -5 -3 -9 0 -9 6 0 6 -5 8 -10 5 -6 -3 -13 1 -16 9 -3 9
-15 16 -25 16 -10 0 -19 5 -19 10 0 6 -3 9 -7 8 -17 -4 -53 14 -47 24 4 6 2 8
-4 4 -6 -3 -13 -2 -17 4 -3 5 -15 10 -26 10 -10 0 -19 5 -19 10 0 6 -11 10
-25 10 -14 0 -25 6 -25 13 0 27 162 25 270 -3 19 -5 44 -11 55 -13 11 -2 27
-7 35 -10 8 -3 44 -15 80 -27 36 -12 86 -33 113 -46 26 -13 47 -22 47 -19 0 8
219 -109 315 -169 50 -31 50 -26 0 12 -5 4 -40 31 -77 60 -38 29 -68 50 -68
47 0 -3 -9 3 -19 13 -33 30 -44 37 -184 131 -74 50 -140 91 -146 91 -5 0 -11
4 -13 8 -6 16 -248 147 -248 135 0 -4 -4 -3 -8 3 -23 37 -305 139 -472 171
-26 5 -178 11 -183 7z"/>
<path d="M114 2185 c-3 -14 -11 -25 -17 -25 -6 0 -8 -3 -4 -6 3 -4 0 -19 -9
-35 -8 -16 -14 -31 -14 -34 0 -3 0 -6 -1 -7 -16 -54 -32 -159 -32 -213 0 -47
13 -166 18 -175 2 -4 7 -22 10 -41 8 -42 10 -49 19 -74 39 -104 51 -132 59
-142 5 -7 6 -13 3 -13 -4 0 0 -7 8 -16 9 -8 14 -20 11 -25 -4 -5 -1 -9 5 -9 6
0 8 -4 5 -10 -3 -5 -1 -10 4 -10 6 0 11 -7 11 -15 0 -8 5 -15 11 -15 5 0 7 -4
4 -10 -3 -5 -1 -10 4 -10 6 0 11 -5 11 -10 0 -6 9 -20 20 -32 11 -12 20 -28
20 -35 0 -7 5 -13 10 -13 6 0 14 -8 17 -17 4 -10 11 -22 15 -28 5 -5 17 -20
27 -33 11 -13 34 -42 53 -64 18 -23 45 -53 60 -66 15 -14 25 -29 22 -34 -3 -5
0 -7 8 -6 7 2 12 -3 11 -9 -2 -7 3 -12 10 -10 6 1 11 -5 9 -13 -2 -8 -1 -12 3
-8 9 8 45 -23 45 -39 0 -6 5 -15 12 -19 7 -5 8 -3 3 7 -8 12 -6 12 8 0 9 -7
14 -18 10 -24 -3 -6 -1 -7 6 -3 6 4 14 1 17 -8 3 -8 14 -18 25 -21 10 -4 19
-13 19 -21 0 -8 4 -12 10 -9 5 3 15 -3 22 -15 7 -11 17 -20 23 -20 6 0 18 -8
26 -17 9 -10 26 -25 39 -33 13 -8 32 -23 42 -32 10 -10 18 -15 18 -10 1 4 9
-3 19 -15 10 -12 21 -19 25 -16 3 3 8 -2 12 -11 3 -9 10 -13 15 -10 5 3 9 0 9
-5 0 -6 6 -11 13 -11 7 0 22 -8 33 -19 11 -10 30 -22 42 -25 12 -4 22 -12 22
-17 0 -6 4 -8 8 -5 5 3 19 -4 30 -15 12 -11 22 -17 22 -14 0 3 13 -2 30 -12
16 -9 30 -21 30 -26 0 -4 4 -6 9 -3 5 3 14 -1 21 -9 7 -8 16 -12 21 -10 4 3
12 -2 17 -11 5 -9 11 -15 13 -13 9 5 49 -13 49 -22 0 -6 5 -7 10 -4 5 3 10 1
10 -5 0 -6 4 -8 10 -5 5 3 10 1 10 -5 0 -6 5 -8 10 -5 6 3 10 1 10 -4 0 -6 3
-11 8 -10 15 2 52 -14 52 -23 0 -5 4 -7 9 -3 5 3 12 1 16 -5 4 -6 11 -8 16 -5
5 4 9 1 9 -5 0 -6 4 -9 9 -5 5 3 12 1 16 -5 3 -5 15 -10 26 -10 10 0 19 -5 19
-10 0 -6 6 -10 13 -9 12 2 27 -2 77 -23 14 -5 36 -12 50 -14 14 -3 32 -7 40
-11 38 -15 175 -44 290 -59 65 -9 281 -11 286 -2 3 4 -10 8 -28 9 -40 1 -64 4
-103 12 -16 4 -46 9 -65 12 -33 4 -47 7 -102 21 -13 3 -34 7 -47 10 -13 3 -31
9 -40 13 -9 5 -19 9 -23 10 -5 1 -10 2 -13 2 -3 1 -9 3 -15 4 -5 1 -19 3 -31
4 -11 0 -18 5 -15 10 4 5 -3 7 -14 4 -12 -3 -20 0 -20 6 0 7 -4 10 -8 7 -5 -3
-20 1 -35 9 -15 8 -27 11 -27 8 0 -3 -7 0 -15 7 -8 7 -15 9 -15 4 0 -4 -5 -3
-12 4 -7 7 -20 12 -31 12 -11 0 -15 4 -11 12 4 7 3 8 -4 4 -6 -4 -22 -1 -34 6
-13 7 -26 11 -30 10 -5 -1 -8 3 -8 10 0 6 -3 8 -6 5 -4 -4 -21 4 -38 16 -17
12 -32 21 -33 20 -7 -6 -63 20 -63 29 0 5 -5 6 -10 3 -5 -3 -10 -1 -10 6 0 7
-3 9 -6 6 -4 -4 -19 2 -34 13 -15 11 -30 17 -33 13 -4 -3 -9 2 -13 11 -3 9
-10 14 -14 11 -5 -3 -15 2 -23 10 -9 8 -20 15 -26 15 -6 0 -11 5 -11 11 0 5
-4 8 -8 5 -5 -3 -18 3 -29 14 -12 10 -23 17 -25 14 -3 -2 -17 7 -31 20 -15 14
-27 23 -27 20 0 -5 -17 8 -51 39 -10 9 -19 15 -19 11 0 -6 -74 48 -78 59 -2 4
-9 7 -15 7 -7 0 -31 17 -55 39 -23 21 -42 36 -42 32 -1 -3 -10 5 -20 18 -11
13 -20 20 -20 17 0 -9 -31 19 -141 125 -49 47 -89 91 -89 98 0 7 -4 10 -9 7
-5 -3 -20 10 -35 28 -14 19 -33 41 -42 50 -8 9 -13 16 -9 16 3 0 -6 11 -21 25
-15 14 -23 25 -18 25 5 0 2 6 -6 13 -19 14 -80 108 -79 120 0 5 -8 15 -18 23
-10 7 -14 14 -10 14 5 0 1 7 -7 16 -9 8 -14 19 -11 24 3 5 2 10 -2 12 -11 4
-67 120 -78 161 -2 4 -4 9 -5 12 -1 3 -4 10 -5 15 -1 6 -4 12 -5 15 -1 3 -4
10 -5 15 -1 6 -3 11 -5 13 -1 1 -3 9 -5 17 -7 27 -15 59 -21 83 -23 91 -32
178 -30 310 1 75 1 137 -1 137 -1 0 -5 -11 -9 -25z"/>
</g>
</svg>
